<svg width="1430" height="1531" viewBox="0 0 1430 1531" fill="none" xmlns="http://www.w3.org/2000/svg">
<path d="M1 0V110H1341H1417V756H11V889H1429V1531" stroke="url(#paint0_linear_35_14)" stroke-width="2"/>
<path d="M1275.88 183.28C1275.88 185.04 1275.61 186.667 1275.08 188.16C1274.55 189.627 1273.8 190.907 1272.84 192C1271.91 193.067 1270.79 193.907 1269.48 194.52C1268.2 195.107 1266.8 195.4 1265.28 195.4C1263.76 195.4 1262.35 195.107 1261.04 194.52C1259.76 193.907 1258.64 193.067 1257.68 192C1256.75 190.907 1256.01 189.627 1255.48 188.16C1254.95 186.667 1254.68 185.04 1254.68 183.28C1254.68 181.52 1254.95 179.907 1255.48 178.44C1256.01 176.947 1256.75 175.667 1257.68 174.6C1258.64 173.507 1259.76 172.653 1261.04 172.04C1262.35 171.427 1263.76 171.12 1265.28 171.12C1266.8 171.12 1268.2 171.427 1269.48 172.04C1270.79 172.653 1271.91 173.507 1272.84 174.6C1273.8 175.667 1274.55 176.947 1275.08 178.44C1275.61 179.907 1275.88 181.52 1275.88 183.28ZM1268.2 183.28C1268.2 181.733 1267.92 180.48 1267.36 179.52C1266.83 178.56 1266.13 178.08 1265.28 178.08C1264.37 178.08 1263.64 178.56 1263.08 179.52C1262.55 180.48 1262.28 181.733 1262.28 183.28C1262.28 184.827 1262.55 186.08 1263.08 187.04C1263.64 187.973 1264.37 188.44 1265.28 188.44C1266.13 188.44 1266.83 187.973 1267.36 187.04C1267.92 186.08 1268.2 184.827 1268.2 183.28ZM1288.45 200.08V195.12H1278.17V188.32L1290.85 172.16H1296.05V188.32H1299.57V195.12H1296.05V200.08H1288.45ZM1285.65 188.32H1289.33V183.52L1285.65 188.32Z" fill="#C8C8C8"/>
<path d="M450.88 838.28C450.88 840.04 450.613 841.667 450.08 843.16C449.547 844.627 448.8 845.907 447.84 847C446.907 848.067 445.787 848.907 444.48 849.52C443.2 850.107 441.8 850.4 440.28 850.4C438.76 850.4 437.347 850.107 436.04 849.52C434.76 848.907 433.64 848.067 432.68 847C431.747 845.907 431.013 844.627 430.48 843.16C429.947 841.667 429.68 840.04 429.68 838.28C429.68 836.52 429.947 834.907 430.48 833.44C431.013 831.947 431.747 830.667 432.68 829.6C433.64 828.507 434.76 827.653 436.04 827.04C437.347 826.427 438.76 826.12 440.28 826.12C441.8 826.12 443.2 826.427 444.48 827.04C445.787 827.653 446.907 828.507 447.84 829.6C448.8 830.667 449.547 831.947 450.08 833.44C450.613 834.907 450.88 836.52 450.88 838.28ZM443.2 838.28C443.2 836.733 442.92 835.48 442.36 834.52C441.827 833.56 441.133 833.08 440.28 833.08C439.373 833.08 438.64 833.56 438.08 834.52C437.547 835.48 437.28 836.733 437.28 838.28C437.28 839.827 437.547 841.08 438.08 842.04C438.64 842.973 439.373 843.44 440.28 843.44C441.133 843.44 441.827 842.973 442.36 842.04C442.92 841.08 443.2 839.827 443.2 838.28ZM464.57 836.96C465.957 836.96 467.224 837.187 468.37 837.64C469.517 838.093 470.504 838.733 471.33 839.56C472.184 840.36 472.837 841.333 473.29 842.48C473.77 843.6 474.01 844.84 474.01 846.2C474.01 847.64 473.744 848.96 473.21 850.16C472.677 851.36 471.917 852.387 470.93 853.24C469.97 854.093 468.81 854.76 467.45 855.24C466.117 855.72 464.637 855.96 463.01 855.96C460.93 855.96 459.05 855.573 457.37 854.8C455.717 854.027 454.437 852.92 453.53 851.48L457.69 846.68C458.464 847.507 459.317 848.16 460.25 848.64C461.21 849.093 462.144 849.32 463.05 849.32C464.037 849.32 464.81 849.053 465.37 848.52C465.93 847.987 466.21 847.267 466.21 846.36C466.21 845.48 465.957 844.773 465.45 844.24C464.944 843.707 464.277 843.44 463.45 843.44C462.89 843.44 462.37 843.573 461.89 843.84C461.437 844.08 461.09 844.413 460.85 844.84H454.33L457.69 827.16H471.93V834.08H463.17L462.73 837.16C462.837 837.133 462.984 837.107 463.17 837.08C463.304 837.053 463.49 837.027 463.73 837C463.97 836.973 464.25 836.96 464.57 836.96Z" fill="#C8C8C8"/>
<defs>
<linearGradient id="paint0_linear_35_14" x1="556.004" y1="48.0002" x2="556.004" y2="1220" gradientUnits="userSpaceOnUse">
<stop stop-color="#991B1F"/>
<stop offset="1" stop-color="#ED1C24"/>
</linearGradient>
</defs>
</svg>
