<svg width="1212" height="1343" viewBox="0 0 1212 1343" fill="none" xmlns="http://www.w3.org/2000/svg">
<path d="M101 151V260H1211V985V1037H1V1343" stroke="url(#paint0_linear_25_9)" stroke-width="2"/>
<path d="M131.88 237.28C131.88 239.04 131.613 240.667 131.08 242.16C130.547 243.627 129.8 244.907 128.84 246C127.907 247.067 126.787 247.907 125.48 248.52C124.2 249.107 122.8 249.4 121.28 249.4C119.76 249.4 118.347 249.107 117.04 248.52C115.76 247.907 114.64 247.067 113.68 246C112.747 244.907 112.013 243.627 111.48 242.16C110.947 240.667 110.68 239.04 110.68 237.28C110.68 235.52 110.947 233.907 111.48 232.44C112.013 230.947 112.747 229.667 113.68 228.6C114.64 227.507 115.76 226.653 117.04 226.04C118.347 225.427 119.76 225.12 121.28 225.12C122.8 225.12 124.2 225.427 125.48 226.04C126.787 226.653 127.907 227.507 128.84 228.6C129.8 229.667 130.547 230.947 131.08 232.44C131.613 233.907 131.88 235.52 131.88 237.28ZM124.2 237.28C124.2 235.733 123.92 234.48 123.36 233.52C122.827 232.56 122.133 232.08 121.28 232.08C120.373 232.08 119.64 232.56 119.08 233.52C118.547 234.48 118.28 235.733 118.28 237.28C118.28 238.827 118.547 240.08 119.08 241.04C119.64 241.973 120.373 242.44 121.28 242.44C122.133 242.44 122.827 241.973 123.36 241.04C123.92 240.08 124.2 238.827 124.2 237.28ZM154.49 242.2V249H135.97V242.2H141.65V234.24C141.41 234.56 141.037 234.88 140.53 235.2C140.024 235.493 139.45 235.773 138.81 236.04C138.197 236.307 137.57 236.52 136.93 236.68C136.29 236.84 135.717 236.92 135.21 236.92V229.96C135.584 229.96 136.104 229.827 136.77 229.56C137.437 229.267 138.104 228.933 138.77 228.56C139.437 228.16 140.037 227.747 140.57 227.32C141.13 226.867 141.49 226.48 141.65 226.16H149.41V242.2H154.49Z" fill="#C8C8C8"/>
<path d="M103.646 91.3536C103.842 91.5488 104.158 91.5488 104.354 91.3536L107.536 88.1716C107.731 87.9763 107.731 87.6597 107.536 87.4645C107.34 87.2692 107.024 87.2692 106.828 87.4645L104 90.2929L101.172 87.4645C100.976 87.2692 100.66 87.2692 100.464 87.4645C100.269 87.6597 100.269 87.9763 100.464 88.1716L103.646 91.3536ZM103.5 -2.18557e-08L103.5 91L104.5 91L104.5 2.18557e-08L103.5 -2.18557e-08Z" fill="white"/>
<defs>
<linearGradient id="paint0_linear_25_9" x1="656" y1="199" x2="656" y2="1371" gradientUnits="userSpaceOnUse">
<stop stop-color="#991B1F"/>
<stop offset="1" stop-color="#ED1C24"/>
</linearGradient>
</defs>
</svg>
