<svg width="19" height="19" viewBox="0 0 19 19" fill="none" xmlns="http://www.w3.org/2000/svg">
<g clip-path="url(#clip0_1_99)">
<path d="M15.5586 10.178C15.2555 9.79522 15.3422 9.62491 15.5586 9.28272C15.5625 9.27881 18.0648 5.821 18.3226 4.64835L18.3242 4.64756C18.4523 4.22022 18.3242 3.90616 17.7047 3.90616H15.6547C15.1328 3.90616 14.8922 4.17569 14.7633 4.47725C14.7633 4.47725 13.7195 6.97569 12.243 8.59522C11.7664 9.06319 11.5461 9.21319 11.2859 9.21319C11.1578 9.21319 10.9586 9.06319 10.9586 8.63584V4.64756C10.9586 4.13506 10.8125 3.90616 10.3805 3.90616H7.15703C6.82969 3.90616 6.63515 4.14522 6.63515 4.36788C6.63515 4.85381 7.37344 4.96553 7.45 6.33272V9.29913C7.45 9.94913 7.33203 10.0687 7.07031 10.0687C6.37344 10.0687 4.68203 7.56006 3.67969 4.68897C3.47734 4.13194 3.27969 3.90694 2.75391 3.90694H0.703125C0.117969 3.90694 0 4.17647 0 4.47803C0 5.01085 0.696874 7.66006 3.24062 11.1601C4.93594 13.5491 7.32343 14.8437 9.49531 14.8437C10.8008 14.8437 10.9602 14.5562 10.9602 14.0616C10.9602 11.7788 10.8422 11.5632 11.4961 11.5632C11.7992 11.5632 12.3211 11.7132 13.5398 12.8655C14.9328 14.2319 15.1617 14.8437 15.9414 14.8437H17.9914C18.5758 14.8437 18.8719 14.5562 18.7016 13.989C18.3117 12.796 15.6773 10.3421 15.5586 10.178Z" fill="white"/>
</g>
<defs>
<clipPath id="clip0_1_99">
<rect width="18.75" height="18.75" fill="white"/>
</clipPath>
</defs>
</svg>
